<svg display="none" xmlns="http://www.w3.org/2000/svg">

    <symbol width="140" height="23" viewBox="0 0 140 23" id="logo-icon">
        <circle cx="8.5" cy="11" r="8" stroke="#333333" fill="none"/>
        <path d="M25.84 17.58C26.5867 17.58 27.2 17.46 27.68 17.22C28.1733 16.9667 28.42 16.5467 28.42 15.96C28.42 15.68 28.3733 15.44 28.28 15.24C28.2 15.04 28.06 14.86 27.86 14.7C27.66 14.54 27.3933 14.3867 27.06 14.24C26.74 14.0933 26.34 13.92 25.86 13.72C25.4733 13.56 25.1067 13.4 24.76 13.24C24.4133 13.0667 24.1067 12.8733 23.84 12.66C23.5733 12.4333 23.36 12.1667 23.2 11.86C23.04 11.5533 22.96 11.18 22.96 10.74C22.96 9.9 23.2733 9.22 23.9 8.7C24.54 8.18 25.4133 7.92 26.52 7.92C27.2267 7.92 27.8067 7.98 28.26 8.1C28.7267 8.22 29.0533 8.32667 29.24 8.42L28.94 9.58C28.78 9.5 28.5067 9.39333 28.12 9.26C27.7467 9.12667 27.1933 9.06 26.46 9.06C26.1667 9.06 25.8867 9.09333 25.62 9.16C25.3667 9.21333 25.14 9.30667 24.94 9.44C24.74 9.56 24.58 9.72 24.46 9.92C24.34 10.1067 24.28 10.34 24.28 10.62C24.28 10.9 24.3333 11.14 24.44 11.34C24.5467 11.54 24.7 11.72 24.9 11.88C25.1133 12.0267 25.3667 12.1667 25.66 12.3C25.9667 12.4333 26.3133 12.58 26.7 12.74C27.1 12.9 27.48 13.0667 27.84 13.24C28.2133 13.4 28.54 13.6 28.82 13.84C29.1 14.0667 29.3267 14.3467 29.5 14.68C29.6733 15 29.76 15.4067 29.76 15.9C29.76 16.8333 29.4067 17.54 28.7 18.02C28.0067 18.5 27.0533 18.74 25.84 18.74C24.9333 18.74 24.24 18.66 23.76 18.5C23.28 18.3533 22.96 18.24 22.8 18.16L23.14 16.98C23.18 17.0067 23.2667 17.0533 23.4 17.12C23.5333 17.1733 23.7133 17.24 23.94 17.32C24.1667 17.3867 24.4333 17.4467 24.74 17.5C25.06 17.5533 25.4267 17.58 25.84 17.58ZM33.5747 18.5H32.2747V8.16H33.5747V18.5ZM33.8747 5.04C33.8747 5.34667 33.7814 5.59333 33.5947 5.78C33.408 5.95333 33.1814 6.04 32.9147 6.04C32.648 6.04 32.4214 5.95333 32.2347 5.78C32.048 5.59333 31.9547 5.34667 31.9547 5.04C31.9547 4.73333 32.048 4.49333 32.2347 4.32C32.4214 4.13333 32.648 4.04 32.9147 4.04C33.1814 4.04 33.408 4.13333 33.5947 4.32C33.7814 4.49333 33.8747 4.73333 33.8747 5.04ZM37.0208 8.52C37.4074 8.41333 37.9074 8.29333 38.5208 8.16C39.1474 8.02667 39.9541 7.96 40.9408 7.96C42.2474 7.96 43.1941 8.34 43.7808 9.1C43.8474 9.04667 43.9741 8.96 44.1608 8.84C44.3608 8.70667 44.6074 8.57333 44.9008 8.44C45.1941 8.30667 45.5341 8.19333 45.9208 8.1C46.3208 8.00667 46.7608 7.96 47.2408 7.96C48.0274 7.96 48.6608 8.08 49.1408 8.32C49.6341 8.54667 50.0141 8.87333 50.2808 9.3C50.5474 9.71333 50.7274 10.2133 50.8208 10.8C50.9141 11.3867 50.9608 12.0267 50.9608 12.72V18.5H49.6608V13.14C49.6608 12.46 49.6274 11.8733 49.5608 11.38C49.5074 10.8733 49.3874 10.46 49.2008 10.14C49.0274 9.80667 48.7741 9.56 48.4408 9.4C48.1074 9.22667 47.6741 9.14 47.1408 9.14C46.7408 9.14 46.3741 9.18 46.0408 9.26C45.7208 9.32667 45.4408 9.41333 45.2008 9.52C44.9608 9.62667 44.7608 9.73333 44.6008 9.84C44.4541 9.94667 44.3474 10.0267 44.2808 10.08C44.4008 10.4267 44.4874 10.82 44.5408 11.26C44.6074 11.6867 44.6408 12.14 44.6408 12.62V18.5H43.3408V13.14C43.3408 12.46 43.3074 11.8733 43.2408 11.38C43.1874 10.8733 43.0674 10.46 42.8808 10.14C42.6941 9.80667 42.4274 9.56 42.0808 9.4C41.7474 9.22667 41.3008 9.14 40.7408 9.14C40.1141 9.14 39.5808 9.17333 39.1408 9.24C38.7141 9.30667 38.4408 9.36667 38.3208 9.42V18.5H37.0208V8.52ZM55.5864 16.64C55.7064 16.7333 55.8531 16.8333 56.0264 16.94C56.2131 17.0467 56.4264 17.1467 56.6664 17.24C56.9064 17.3333 57.1664 17.4133 57.4464 17.48C57.7264 17.5333 58.0197 17.56 58.3264 17.56C58.9664 17.56 59.4997 17.4533 59.9264 17.24C60.3664 17.0133 60.7197 16.7133 60.9864 16.34C61.2531 15.9533 61.4464 15.5067 61.5664 15C61.6864 14.48 61.7464 13.9333 61.7464 13.36C61.7464 12 61.4064 10.96 60.7264 10.24C60.0464 9.50667 59.1464 9.14 58.0264 9.14C57.3864 9.14 56.8664 9.17333 56.4664 9.24C56.0797 9.29333 55.7864 9.35333 55.5864 9.42V16.64ZM55.5864 22.2H54.2864V8.52C54.6731 8.38667 55.1664 8.26 55.7664 8.14C56.3664 8.02 57.1264 7.96 58.0464 7.96C58.8064 7.96 59.4931 8.08667 60.1064 8.34C60.7331 8.58 61.2664 8.93333 61.7064 9.4C62.1597 9.86667 62.5064 10.4333 62.7464 11.1C62.9997 11.7667 63.1264 12.52 63.1264 13.36C63.1264 14.1467 63.0197 14.8733 62.8064 15.54C62.6064 16.1933 62.3064 16.76 61.9064 17.24C61.5064 17.7067 61.0131 18.0733 60.4264 18.34C59.8531 18.6067 59.1931 18.74 58.4464 18.74C57.7664 18.74 57.1731 18.6467 56.6664 18.46C56.1731 18.26 55.8131 18.0733 55.5864 17.9V22.2ZM68.5666 18.68C68.1266 18.6667 67.7399 18.6067 67.4066 18.5C67.0866 18.4067 66.8132 18.26 66.5866 18.06C66.3732 17.8467 66.2066 17.58 66.0866 17.26C65.9799 16.9267 65.9266 16.5133 65.9266 16.02V3.22L67.2266 2.98V15.98C67.2266 16.3 67.2532 16.56 67.3066 16.76C67.3732 16.9467 67.4666 17.1 67.5866 17.22C67.7066 17.3267 67.8599 17.4067 68.0466 17.46C68.2466 17.5133 68.4799 17.56 68.7466 17.6L68.5666 18.68ZM70.4242 13.32C70.4242 12.4133 70.5509 11.6267 70.8042 10.96C71.0709 10.28 71.4109 9.71333 71.8242 9.26C72.2509 8.80667 72.7309 8.47333 73.2642 8.26C73.8109 8.03333 74.3709 7.92 74.9442 7.92C76.2109 7.92 77.2176 8.33333 77.9642 9.16C78.7242 9.98667 79.1042 11.26 79.1042 12.98C79.1042 13.0867 79.0976 13.1933 79.0842 13.3C79.0842 13.4067 79.0776 13.5067 79.0642 13.6H71.8042C71.8442 14.8667 72.1576 15.84 72.7442 16.52C73.3309 17.2 74.2642 17.54 75.5442 17.54C76.2509 17.54 76.8109 17.4733 77.2242 17.34C77.6376 17.2067 77.9376 17.0933 78.1242 17L78.3642 18.12C78.1776 18.2267 77.8242 18.3533 77.3042 18.5C76.7976 18.6467 76.1976 18.72 75.5042 18.72C74.5976 18.72 73.8242 18.5867 73.1842 18.32C72.5442 18.0533 72.0176 17.68 71.6042 17.2C71.1909 16.72 70.8909 16.1533 70.7042 15.5C70.5176 14.8333 70.4242 14.1067 70.4242 13.32ZM77.7642 12.5C77.7376 11.42 77.4842 10.58 77.0042 9.98C76.5242 9.38 75.8442 9.08 74.9642 9.08C74.4976 9.08 74.0776 9.17333 73.7042 9.36C73.3442 9.54667 73.0242 9.8 72.7442 10.12C72.4776 10.4267 72.2642 10.7867 72.1042 11.2C71.9576 11.6133 71.8709 12.0467 71.8442 12.5H77.7642Z" fill="#333333"/>
        <rect x="86.5" y="3" width="31" height="16" rx="8" stroke="#333333" fill="none"/>
        <circle cx="131.5" cy="11" r="8" stroke="#333333" fill="none"/>
    </symbol>

    <symbol width="24" height="24" viewBox="0 0 24 24" id="search-icon"> 
        <path d="M13 19C8.58175 19 5.00003 15.4183 5.00003 11C5.00003 6.58172 8.58175 3 13 3C17.4183 3 21 6.58172 21 11C21 15.4183 17.4183 19 13 19Z" stroke-width="2" stroke-linecap="round" stroke-linejoin="round" fill="none"/>
        <path d="M2.99998 20.9999L7.34998 16.6499" stroke-width="2" stroke-linecap="round" stroke-linejoin="round"/>
    </symbol>

    <symbol width="24" height="24" viewBox="0 0 24 24" id="logout-icon"> 
        <path d="M15 3H19C19.5304 3 20.0391 3.21071 20.4142 3.58579C20.7893 3.96086 21 4.46957 21 5V19C21 19.5304 20.7893 20.0391 20.4142 20.4142C20.0391 20.7893 19.5304 21 19 21H15" stroke-width="2" stroke-linecap="round" stroke-linejoin="round" fill="none"/>
        <path d="M10 17L15 12L10 7" stroke-width="2" stroke-linecap="round" stroke-linejoin="round" fill="none"/>
        <path d="M15 12H3"  stroke-width="2" stroke-linecap="round" stroke-linejoin="round" fill="none"/>
    </symbol>

    <symbol width="197" height="55" viewBox="0 0 197 55" id="hahnemuhle-icon">
        <g clip-path="url(#clip0_1_577)">
            <path d="M62.5745 48.9001V29.5335H60.1161V37.8668H51.6919V29.5335H49.2335V48.9001H51.6919V40.1335H60.1488V48.9001H62.5745ZM77.1938 39.0335C77.1938 36.0001 75.8826 34.4335 71.8836 34.4335C70.3758 34.4335 68.6057 34.6668 67.3274 35.0668L67.5568 37.0335C68.6713 36.8001 70.4086 36.5668 71.7197 36.5668C73.9814 36.5668 74.7354 37.2001 74.7354 38.9668V41.1668H71.0641C68.2452 41.1668 66.8029 42.2335 66.8029 45.1668C66.8029 47.6668 67.9174 49.2335 70.5069 49.2335C72.1786 49.2335 73.7848 48.7668 75.0304 47.9001L75.1943 48.9668H77.2265L77.1938 39.0335ZM74.7681 45.9668C73.6864 46.6668 72.3753 47.1335 71.1625 47.1335C69.458 47.1335 69.1958 46.5335 69.1958 45.1001C69.1958 43.6668 69.753 43.2001 71.228 43.2001H74.7681V45.9668ZM92.2064 48.9001V38.0335C92.2064 35.8668 91.4197 34.4335 89.1908 34.4335C87.5846 34.4335 85.3557 35.1335 83.8151 35.9335V28.6335L81.4222 28.9668V48.9335H83.8151V38.2668C85.3229 37.5001 87.4535 36.8001 88.4696 36.8001C89.3547 36.8001 89.8136 37.1668 89.8136 38.1001V48.9335H92.2064V48.9001ZM107.449 48.9001V38.0335C107.449 35.8668 106.662 34.4335 104.433 34.4335C102.794 34.4335 100.368 35.1668 98.8277 35.9668L98.5983 34.7668H96.6315V48.9335H99.0244V38.2335C100.532 37.4668 102.663 36.8001 103.679 36.8001C104.564 36.8001 105.023 37.1668 105.023 38.1001V48.9335H107.449V48.9001ZM113.578 43.9668V42.8001H121.871V39.8335C121.871 36.9001 120.757 34.4668 116.627 34.4668C112.496 34.4668 111.185 36.8335 111.185 39.7668V44.0001C111.185 47.2001 112.595 49.2001 116.692 49.2001C118.429 49.2001 120.298 48.9001 121.609 48.4001L121.314 46.4335C119.773 46.8335 118.298 47.1001 116.922 47.1001C114.201 47.1001 113.578 46.2001 113.578 43.9668ZM113.578 39.5668C113.578 37.5668 114.365 36.5001 116.627 36.5001C118.888 36.5001 119.544 37.6335 119.544 39.5668V40.7335H113.578V39.5668ZM144.882 48.9001V38.0335C144.882 35.8668 144.095 34.4335 141.866 34.4335C140.129 34.4335 137.769 35.1335 136.097 35.9668C135.704 35.0001 134.884 34.4335 133.442 34.4335C131.803 34.4335 129.377 35.1668 127.837 35.9668L127.607 34.7668H125.641V48.9335H128.034V38.2335C129.541 37.4668 131.672 36.8001 132.688 36.8001C133.573 36.8001 134.032 37.1668 134.032 38.1001V48.9335H136.425V38.2335C137.933 37.4668 139.932 36.8001 141.079 36.8001C141.964 36.8001 142.423 37.1668 142.423 38.1001V48.9335H144.882V48.9001ZM149.176 34.7668V45.6335C149.176 47.8001 149.962 49.2335 152.191 49.2335C153.83 49.2335 156.256 48.5001 157.797 47.7001L158.026 48.9001H159.993V34.7335H157.6V45.4335C156.092 46.2001 153.961 46.8668 152.945 46.8668C152.06 46.8668 151.601 46.5001 151.601 45.5668V34.7335L149.176 34.7668ZM151.11 32.6001H153.339V30.1668H151.11V32.6001ZM156.059 32.6001H158.288V30.1668H156.059V32.6001ZM175.366 48.9001V38.0335C175.366 35.8668 174.579 34.4335 172.35 34.4335C170.744 34.4335 168.515 35.1335 166.975 35.9335V28.6335L164.582 28.9668V48.9335H166.975V38.2668C168.482 37.5001 170.613 36.8001 171.629 36.8001C172.514 36.8001 172.973 37.1668 172.973 38.1001V48.9335H175.366V48.9001ZM182.217 48.9001V28.6001L179.824 28.9335V48.9001H182.217ZM188.445 43.9668V42.8001H196.738V39.8335C196.738 36.9001 195.623 34.4668 191.493 34.4668C187.363 34.4668 186.052 36.8335 186.052 39.7668V44.0001C186.052 47.2001 187.461 49.2001 191.559 49.2001C193.296 49.2001 195.164 48.9001 196.475 48.4001L196.18 46.4335C194.64 46.8335 193.165 47.1001 191.788 47.1001C189.067 47.1001 188.445 46.2001 188.445 43.9668ZM188.445 39.5668C188.445 37.5668 189.231 36.5001 191.493 36.5001C193.755 36.5001 194.41 37.6335 194.41 39.5668V40.7335H188.445V39.5668Z" fill="#6F7072"/>
            <path d="M38.5478 22.0331C38.3183 19.4331 37.2038 17.1331 35.3682 15.6331C33.7293 14.2664 31.6314 13.5997 29.5992 13.8664C27.108 14.1331 25.0757 16.0664 23.7973 17.6331C22.3551 19.3664 21.3717 21.2664 20.8473 22.6331C19.5689 21.4997 18.7494 20.1664 18.3561 18.5331C18.0283 17.1331 17.6677 14.3664 17.4055 12.3664C17.2088 11.0331 17.1105 9.9664 17.0121 9.59973C16.7499 8.3664 15.9304 6.2664 15.406 5.1664C16.5532 4.93307 17.4383 4.63306 18.2905 3.79973C19.1428 2.93306 20.5195 1.59973 20.5522 1.59973L21.3717 0.79973L20.2245 0.699734C19.995 0.6664 14.1604 0.233066 13.177 0.266399C12.4887 0.299733 11.6364 0.666398 10.9481 1.33307C10.3908 1.83307 9.66972 2.69973 9.14526 4.09973C8.6208 4.19973 3.86789 5.13306 3.86789 5.13306V6.1664L4.26123 6.2664C5.73627 6.59973 7.60466 7.39973 8.71913 8.23306L8.65358 8.2664C7.703 8.89973 6.42463 9.7664 5.34293 10.7664C3.96622 12.0331 3.31065 13.1664 3.40899 14.1664C3.47454 14.8664 3.76955 15.3997 4.26123 15.7664C4.65458 16.0331 5.14626 16.1664 5.70349 16.1664C5.04792 17.3331 4.68735 18.2331 4.42512 19.0997C4.09734 20.2997 3.96622 21.4997 4.13012 22.9997C4.32679 25.2997 5.47404 27.5997 6.78519 29.5997H0V45.5664C0 46.9997 0.295009 48.3664 0.917805 49.5664C1.47504 50.6997 2.26173 51.6664 3.24509 52.4997C5.01514 53.9664 7.37521 54.8331 9.57138 54.8331C11.7676 54.8331 14.1276 53.9664 15.8977 52.4997C16.881 51.6997 17.6677 50.6997 18.225 49.5664C18.7822 48.4664 19.0772 47.2664 19.1428 45.9997C19.2739 43.8664 19.995 40.6997 21.1095 38.2331C22.3551 35.4331 24.0268 33.9664 26.1574 33.7664C27.3047 33.6664 28.4519 33.8331 29.4353 34.2997C30.2547 34.6664 31.0414 35.2331 31.6642 35.9331C32.8115 37.1664 33.3687 38.5664 33.4343 38.8664V38.8331L33.8276 40.1331L34.3849 38.9997C35.2699 37.1331 36.5155 34.1997 37.4333 30.7664C38.4494 27.4997 38.7772 24.5331 38.5478 22.0331ZM7.57188 30.5664L7.80133 30.8664C8.52246 31.8331 9.27637 32.6664 9.89917 33.3331L11.3087 34.8664C13.5704 37.2664 15.3404 39.1664 16.1599 40.5664C17.2088 42.3664 17.9627 44.1331 18.225 45.4664C18.2577 45.5997 18.2905 45.8664 18.2905 45.9664C18.1594 48.8331 16.6844 50.6331 15.406 51.6997C13.7998 53.0331 11.6692 53.8331 9.70249 53.8331C7.70299 53.8331 5.60516 53.0664 3.999 51.6997C2.68785 50.5997 1.11448 48.6331 1.11448 45.5664V30.6331L7.57188 30.5664ZM9.27637 9.0664L9.50582 8.89973C9.66972 9.13306 9.76805 9.33306 9.76805 9.5664C9.83361 10.3664 9.11248 11.2331 8.22745 12.3664C7.63744 13.0997 6.98186 13.9664 6.32629 14.9664C5.7035 15.1331 5.17903 15.0664 4.81847 14.7997C4.58902 14.5997 4.42513 14.3331 4.39235 13.9664C4.32679 13.2997 4.88403 12.4331 5.9985 11.3997C7.0802 10.5331 8.35857 9.69973 9.27637 9.0664ZM36.6138 30.5331C35.8927 33.2664 34.9421 35.7331 34.0898 37.4997C33.7621 36.8331 33.2704 36.0664 32.582 35.3331C31.402 33.9997 29.3042 32.4997 26.1574 32.7664C24.8135 32.8997 23.6007 33.4664 22.5517 34.3997C21.6995 35.1997 20.9456 36.3664 20.29 37.7997C19.5361 39.5331 19.0116 41.4997 18.6183 43.3331C18.225 42.2997 17.7005 41.1997 17.0121 40.0331C16.1271 38.5331 14.3243 36.5997 12.0298 34.1664L10.6203 32.6331C9.11248 30.9997 7.83411 29.3331 6.91631 27.7331C5.90017 25.9664 5.31015 24.2997 5.17904 22.8664C5.04792 21.4997 5.14626 20.4331 5.44126 19.3331C5.70349 18.3331 6.19517 17.2997 7.0802 15.7997C7.70299 14.6997 8.39135 13.8331 9.04692 13.0664C10.0958 11.7664 10.8825 10.7331 10.7842 9.53307C10.6859 8.53307 9.86639 7.59973 8.26023 6.73306C7.57188 6.3664 6.78519 6.03307 6.06406 5.7664C7.60466 5.4664 9.60416 5.0664 9.60416 5.0664L9.89917 4.99973L9.9975 4.73306C10.7186 2.3664 12.3248 1.29973 13.2098 1.2664C13.8326 1.23307 16.8155 1.4664 18.9789 1.59973C18.52 2.03307 17.9627 2.59973 17.5366 3.03307C16.8483 3.73307 16.0616 3.93307 14.9143 4.19973L13.7998 4.4664L14.226 5.09973C14.4554 5.43307 15.6354 8.23306 15.996 9.79973C16.0943 10.1331 16.2255 11.2331 16.3566 12.4664C16.6188 14.5997 16.9794 17.2997 17.3399 18.7664C17.8316 20.8664 18.8805 22.4997 20.6834 23.8664L21.2734 24.2997L21.3717 23.9331C21.8634 22.2997 23.2073 19.8997 24.5185 18.2997C25.6657 16.8664 27.5341 15.1331 29.6647 14.8664C31.402 14.6331 33.2376 15.2331 34.6799 16.4331C36.286 17.7664 37.3022 19.7997 37.4988 22.1331C37.7611 24.4997 37.4333 27.3331 36.6138 30.5331ZM13.2754 5.89973C13.2098 5.09973 12.4887 4.4664 11.6692 4.5664C10.8825 4.63306 10.2597 5.3664 10.3581 6.19973C10.4236 6.99973 11.1448 7.63307 11.9642 7.53307C12.7509 7.43307 13.3409 6.69973 13.2754 5.89973ZM12.2592 5.99973C12.292 6.23307 12.0953 6.4664 11.8659 6.49973C11.6364 6.53307 11.407 6.33307 11.3742 6.09973C11.3414 5.8664 11.5381 5.63307 11.7676 5.59973C12.0298 5.53307 12.2265 5.69973 12.2592 5.99973ZM8.42413 47.4331V47.6664C8.42413 47.9997 8.39135 48.1664 7.76855 48.1664C7.47354 48.1664 7.0802 48.1331 6.75241 48.0331L6.65408 48.7331C6.94909 48.8331 7.34243 48.8997 7.80133 48.8997C8.98137 48.8997 9.24359 48.4664 9.24359 47.7331V47.3331C9.24359 46.7331 9.01414 46.3331 8.22745 46.2997C7.998 46.2997 7.86689 46.2664 7.63744 46.2664V45.1664H9.17804V44.4664H6.78519V46.9331C7.11298 46.9331 7.37521 46.9331 7.83411 46.9664C8.35857 46.9997 8.42413 47.0997 8.42413 47.4331ZM3.5401 48.7997H6.09684V48.0997H5.21181V44.4664H4.49068L3.40899 44.7997L3.60566 45.4997L4.42512 45.2664V48.0997H3.57288V48.7997H3.5401ZM9.89917 47.4664V47.7331C9.89917 48.4997 10.2597 48.8664 11.3087 48.8664C12.3576 48.8664 12.7181 48.5664 12.7181 47.7331V47.4664C12.7181 47.0997 12.587 46.8331 12.0953 46.5997C12.5215 46.3664 12.6198 46.0997 12.6198 45.7664V45.4664C12.6198 44.7997 12.292 44.3997 11.3414 44.3997C10.3908 44.3997 10.0631 44.7997 10.0631 45.4664V45.7664C10.0631 46.0997 10.1942 46.3664 10.5875 46.5997C10.0303 46.8331 9.89917 47.0997 9.89917 47.4664ZM11.8331 45.7664C11.8331 45.9997 11.7676 46.0997 11.3087 46.2997C10.8498 46.0997 10.7842 46.0331 10.7842 45.7664V45.4997C10.7842 45.2331 10.8825 45.0997 11.3087 45.0997C11.7348 45.0997 11.8331 45.2664 11.8331 45.4997V45.7664ZM10.6859 47.5331C10.6859 47.2664 10.7514 47.1331 11.3087 46.8997C11.8659 47.1331 11.9314 47.2331 11.9314 47.5331V47.7331C11.9314 48.0664 11.7676 48.1664 11.3087 48.1664C10.8498 48.1664 10.6859 48.0331 10.6859 47.7331V47.5331ZM14.6849 44.4664L13.1443 47.0664V47.7997H15.0126V48.7664H15.7993V47.7997H16.3238V47.0997H15.7993V44.4331H14.6849V44.4664ZM13.9637 47.1331L15.0126 45.2331V47.1331H13.9637Z" fill="#E1001A"/>
        </g>
        <defs>
            <clipPath id="clip0_1_577">
                <rect width="197" height="55" fill="white"/>
            </clipPath>
        </defs>
    </symbol>


    <symbol width="186" height="53" viewBox="0 0 186 53" id="canson-icon">
        <path fill-rule="evenodd" clip-rule="evenodd" d="M35.2376 7C38.3151 8.90446 42.0851 14.0318 43.3931 17.8408C44.9318 22.0892 43.47 26.2643 39.8539 29.3408C33.9296 34.3217 30.1596 37.7643 27.3898 40.914C25.2355 43.4045 22.5427 46.5541 22.7735 53C17.0801 46.4809 16.0029 36.4459 22.158 29.9268C28.7747 22.8949 30.0057 21.4299 32.4678 18.3535C34.7759 15.4236 35.6223 11.2484 35.2376 7Z" fill="#558EC0"/>
        path fill-rule="evenodd" clip-rule="evenodd" d="M9.50115 39C-6.48861 25.474 -2.12067 6.68786 21.279 1.3526C23.7749 0.751445 24.8669 0.526012 26.1149 0C27.4409 2.63006 27.5969 4.65896 24.3209 6.83815C16.131 12.1734 3.72923 19.4624 9.50115 39Z" fill="#558EC0"/>
        <path fill-rule="evenodd" clip-rule="evenodd" d="M67.9182 42.3352C66.6091 42.8523 65.9545 43 63.9909 43C56.2182 43 50 37.1648 50 30C50 22.8352 56.3 17 63.9909 17C65.3 17 66.6091 17.1477 68 17.5909V24.017C66.7727 23.3523 65.5455 23.0568 63.9909 23.0568C59.7364 23.0568 56.3 26.1591 56.3 30C56.3 33.8409 59.7364 36.9432 63.9909 36.9432C65.7909 36.9432 66.6909 36.6477 67.8364 36.0568L67.9182 42.3352Z" fill="#053D5B"/>
        <path fill-rule="evenodd" clip-rule="evenodd" d="M156 30C156 37.1648 149.921 43 142.5 43C135 43 129 37.1648 129 30C129 22.8352 135.079 17 142.5 17C149.921 17 156 22.8352 156 30ZM142.421 23.0568C138.316 23.0568 135 26.1591 135 30C135 33.8409 138.316 36.9432 142.421 36.9432C146.526 36.9432 149.842 33.8409 149.842 30C149.842 26.1591 146.526 23.0568 142.421 23.0568Z" fill="#053D5B"/>
        <path fill-rule="evenodd" clip-rule="evenodd" d="M98.8906 42.9251H92V27.0403C92 21.7205 96.6758 17 102.5 17C108.324 17 113 21.7205 113 27.0403V43H106.109V27.0403C106.109 24.7176 104.469 23.294 102.418 23.294C100.367 23.294 98.7266 24.9424 98.7266 27.0403L98.8906 42.9251Z" fill="#053D5B"/>
        <path fill-rule="evenodd" clip-rule="evenodd" d="M164.562 42.9251H158V27.0403C158 21.7205 162.453 17 168 17C173.547 17 178 21.7205 178 27.0403V43H171.438V27.0403C171.438 24.7925 169.875 23.294 167.922 23.294C165.969 23.294 164.406 24.9424 164.406 27.0403L164.562 42.9251Z" fill="#053D5B"/>
        <path fill-rule="evenodd" clip-rule="evenodd" d="M76.5625 36.1816V42.9251H70V27.0403C70 21.7205 74.4531 17 80 17C85.5469 17 90 21.7205 90 27.0403V43H83.4375V36.1066H76.5625V36.1816ZM83.5156 30.2622V27.1153C83.5156 24.8674 81.9531 23.3689 80 23.3689C78.2031 23.3689 76.4844 25.0173 76.4844 27.1153V30.3372H83.5156V30.2622Z" fill="#053D5B"/>
        <path fill-rule="evenodd" clip-rule="evenodd" d="M124.195 26.5748L126.256 30.2062C129.823 36.2587 126.177 44.732 115 42.6894V36.7126C119.598 38.377 122.134 36.0317 120.152 32.3246C120.152 32.3246 118.726 29.828 117.616 27.9366C114.921 23.3972 118.329 15.6804 128 17.1935V23.3216C125.543 21.5815 122.293 23.3216 124.195 26.5748Z" fill="#053D5B"/>
        <path d="M186 20.5C186 21.2353 185.647 21.8235 185.118 22.2647C184.588 22.7059 183.794 23 183 23C182.118 23 181.412 22.7059 180.882 22.2647C180.353 21.8235 180 21.1618 180 20.5C180 19.7647 180.353 19.1765 180.882 18.7353C181.412 18.2941 182.206 18 183 18C183.794 18 184.588 18.2941 185.118 18.7353C185.647 19.1765 186 19.7647 186 20.5ZM184.853 22.1176C185.382 21.6765 185.647 21.1618 185.647 20.5C185.647 19.9118 185.382 19.3235 184.853 18.8824C184.324 18.4412 183.706 18.2206 182.912 18.2206C182.118 18.2206 181.5 18.4412 180.971 18.8824C180.441 19.3235 180.176 19.8382 180.176 20.5C180.176 21.1618 180.441 21.6765 180.971 22.1176C181.5 22.5588 182.118 22.7794 182.912 22.7794C183.706 22.7794 184.324 22.4853 184.853 22.1176Z" fill="#053D5B"/>
        <path fill-rule="evenodd" clip-rule="evenodd" d="M182.471 19.3947H183.118C183.353 19.3947 183.529 19.4737 183.529 19.8684C183.529 20.1842 183.412 20.3421 183.118 20.3421H182.471V19.3947ZM182.059 22H182.471V20.7368H183.059C183.412 20.7368 183.529 20.9737 183.529 21.5263C183.529 21.6842 183.529 21.8421 183.588 22H184C183.941 21.8421 183.882 21.5263 183.882 21.2105C183.882 20.7368 183.706 20.5789 183.529 20.5789C183.588 20.5789 183.882 20.4211 183.882 19.7895C183.882 19.2368 183.647 19 183.118 19H182V22H182.059Z" fill="#053D5B"/>
    </symbol>

    <symbol width="225" height="21" viewBox="0 0 225 21" id="royal-icon">
        <g clip-path="url(#clip0_1_588)">
            <path d="M13.5516 20.1447L11.0432 20.8058L5.57736 12.5614L2.50747 12.4836L2.65722 20.4558L0.18634 20.6502V0.505804L4.97835 0.350245C7.14974 0.272467 8.83443 0.778028 9.99499 1.78914C11.1556 2.83914 11.7546 4.23914 11.7546 5.91136C11.7546 7.03914 11.3802 8.12803 10.6689 9.21692C9.95756 10.3447 8.94674 11.2003 7.59899 11.7447V11.8225L13.5516 20.1447ZM2.61978 1.94469L2.47003 11.1225L6.21379 10.9669C7.56155 10.578 9.17137 8.94469 9.17137 6.53358C9.17137 3.85024 7.48667 2.10025 4.67885 2.02247L2.61978 1.94469ZM25.1947 20.8058C19.8036 20.8058 15.5732 16.6447 15.5732 10.4225C15.5732 4.7058 20.3652 0.0391388 25.7562 0.0391388C31.1847 0.0391388 35.4151 4.23913 35.4151 10.4614C35.3777 16.2169 30.3611 20.8058 25.1947 20.8058ZM25.569 19.1336C29.7995 19.1336 32.7571 15.8669 32.7571 10.6558C32.7571 5.44469 29.3128 1.71136 25.3818 1.71136C21.1888 1.71136 18.1938 4.93913 18.1938 10.228C18.1938 15.3225 21.713 19.1336 25.569 19.1336ZM46.01 20.4558L43.5391 20.6502V11.0836L36.2388 0.700249L38.8968 0.350245L45.0366 9.64469L51.3635 0.350245L53.4975 0.700249L45.9725 11.2002L46.01 20.4558ZM70.2695 20.4169L67.6863 20.6891L65.777 15.3614L56.4551 15.5558L54.5457 20.6502L52.4118 20.4169L60.7604 0.350245L61.8835 0.0780241L70.2695 20.4169ZM61.0224 3.81135L57.1664 13.7669L65.178 13.9225L61.0224 3.81135ZM78.8428 20.4558L73.7138 20.6114V0.54469L76.1847 0.350245L76.0724 8.86691L76.1472 18.9002L84.3835 18.5891L84.1963 20.4947L78.8428 20.4558ZM135.785 20.4558L133.314 20.6502V2.02247L125.827 2.29469L126.014 0.350245H134.325L143.048 0.155801L142.861 2.21692L135.823 1.94469L135.673 9.33358L135.785 20.4558ZM159.633 20.4169L157.05 20.6891L155.141 15.3614L145.819 15.5558L143.909 20.6502L141.775 20.4169L150.124 0.350245L151.247 0.0780241L159.633 20.4169ZM150.386 3.81135L146.53 13.7669L154.542 13.9225L150.386 3.81135ZM168.206 20.4558L163.077 20.6114V0.54469L165.548 0.350245L165.436 8.82803L165.511 18.8614L173.747 18.5503L173.56 20.4558H168.206ZM180.523 20.4558L177.266 20.6114V0.505804L181.908 0.350245H187.674L187.487 2.29469L179.737 1.98358L179.55 9.60581L186.289 9.41136L185.877 11.3169L179.512 11.1225L179.7 18.8614L188.31 18.5891L188.123 20.4947H180.523V20.4558ZM194.413 20.4558L192.204 20.6502L192.391 0.54469L194.188 0.350245L206.131 15.9058L205.906 0.54469L208.115 0.350245L207.853 20.4558L207.029 20.6114L194.151 4.35581L194.413 20.4558ZM217.849 20.6502C216.725 20.6502 215.602 20.4169 214.517 19.9502C213.431 19.4836 212.607 18.9002 212.008 18.3169L213.206 16.9558C214.704 18.1225 216.314 19.0169 218.485 19.0169C220.881 19.0169 222.528 17.8891 222.528 15.6725C222.528 14.5058 222.116 13.6114 221.368 13.0669C220.619 12.5225 219.571 11.978 218.298 11.4336C215.64 10.3447 212.795 9.21692 212.795 5.52247C212.795 2.56692 215.378 0.194692 218.897 0.194692C220.731 0.194692 222.641 0.739139 223.764 1.59469L223.314 3.34469C222.191 2.80025 220.02 1.98358 218.373 1.98358C216.538 1.98358 215.003 2.87802 215.003 4.82247C215.003 6.06691 215.415 6.96135 216.164 7.5058C216.913 8.08913 217.961 8.63358 219.196 9.17803C221.817 10.3447 224.737 11.278 224.737 14.8947C224.775 18.7058 221.443 20.6502 217.849 20.6502Z" fill="#333333"/>
            <path d="M95.2787 0.0776672V20.5721H115.008V0.0776672H95.2787ZM105.125 19.7166C100.108 19.7166 96.0649 15.5166 96.0649 10.3054C96.0649 5.09434 100.108 0.894336 105.125 0.894336C110.141 0.894336 114.185 5.09434 114.185 10.3054C114.185 15.5166 110.141 19.7166 105.125 19.7166ZM97.188 11.9777C97.3752 12.911 98.2737 15.1666 99.8086 14.6221C100.932 14.1943 101.007 13.1054 101.231 11.861C101.418 10.6943 101.718 8.47767 102.092 8.011C102.13 7.97212 102.092 7.93322 102.055 7.93322C101.156 7.97211 100.557 10.0721 100.22 11.0443C99.584 12.9499 97.6373 13.1055 97.3003 11.9388C97.3003 11.9388 97.188 11.9388 97.188 11.9777ZM112.912 8.67211C112.687 8.16655 112.537 7.97211 112.313 7.50544C112.5 6.961 112.725 6.22212 112.687 5.91101C112.537 4.58878 110.815 5.98877 111.19 7.69989C111.302 8.16655 111.414 8.51656 111.489 8.82767C110.965 9.91656 110.74 9.72211 110.778 9.33322C110.815 9.061 110.853 8.51655 110.853 8.51655C111.002 7.46656 110.478 7.38878 110.141 7.62212C109.954 7.73878 109.692 8.12767 109.58 8.361L109.692 7.85545L108.756 8.24434L108.457 9.83877C108.082 10.7332 107.671 10.8888 107.408 10.8499C107.334 10.811 107.259 10.7721 107.184 10.7332C108.045 9.95545 108.344 9.29434 108.27 8.82767C108.195 8.32212 107.82 8.32211 107.558 8.39989C106.884 8.63323 106.323 9.33322 106.173 10.3054C106.136 10.6166 106.136 10.9277 106.21 11.161C105.611 12.1332 105.574 11.5888 105.649 11.1999C105.836 10.3054 106.435 6.611 106.435 6.611L105.499 6.99989C105.499 6.99989 104.938 10.2277 104.713 11.4721C104.264 12.5999 104.151 12.1721 104.226 11.7832C104.376 10.8888 104.601 9.72211 104.601 9.72211L103.702 10.0721C103.702 10.0721 103.627 10.3443 103.552 10.811C103.44 10.461 103.215 10.2277 102.916 10.1888C102.354 10.111 101.755 10.8888 101.568 11.8221C101.381 12.7943 101.681 13.6499 102.242 13.6888C102.654 13.7277 103.066 13.3777 103.328 12.8332C103.478 13.1832 103.852 13.1443 104.077 12.9888C104.301 12.8332 104.526 12.4443 104.676 12.1332C104.75 12.5999 105.125 12.5999 105.387 12.4443C105.799 12.211 106.173 11.6666 106.36 11.4332C106.51 11.7054 106.772 11.861 107.072 11.8221C107.483 11.7832 107.97 11.2388 108.344 10.6166L108.195 11.3555L109.131 10.9666L109.468 9.17767C109.917 8.04989 110.067 8.43878 110.029 8.78878C110.029 8.78878 109.992 9.0999 109.917 9.60545C109.804 10.6555 110.254 10.6943 110.591 10.4999C111.077 10.1888 111.377 9.60544 111.639 9.061C111.826 9.52766 112.051 9.91656 112.238 10.4999C113.586 14.4277 108.494 14.0388 106.473 14.1166C104.601 14.1943 104.413 15.8666 104.226 17.1499C111.19 17.2277 114.334 11.8999 112.912 8.67211ZM103.403 11.6666C103.365 12.1332 103.066 12.6388 102.804 12.6388C102.542 12.6388 102.354 12.2499 102.429 11.7054C102.504 11.2388 102.729 10.811 102.991 10.811C103.253 10.811 103.44 11.1999 103.403 11.6666ZM107.072 10.4221C107.034 10.3054 107.034 10.1888 107.034 10.0332C107.072 9.56655 107.296 9.061 107.596 8.98323C107.708 8.94434 107.82 8.98323 107.82 9.17767C107.82 9.60545 107.408 10.111 107.072 10.4221ZM112.163 7.15544C112.126 7.11656 112.126 7.07767 112.126 7.03878C111.564 5.63878 112.313 5.44433 112.388 6.02767C112.388 6.33878 112.313 6.76655 112.163 7.15544ZM106.098 3.14989C105.986 4.04434 105.911 5.911 104.226 6.18322C101.456 6.64989 97.7496 7.89434 97.1506 10.6943C97.1506 10.7332 97.0383 10.7332 97.0383 10.7332C96.9634 6.33878 100.745 3.14989 106.098 3.14989Z" fill="#FF0000"/>
        </g>
        <defs>
            <clipPath id="clip0_1_588">
                <rect width="225" height="21" fill="white"/>
            </clipPath>
        </defs>
    </symbol>

    <symbol width="209" height="26" viewBox="0 0 209 26" id="fabriano-icon">
        <g clip-path="url(#clip0_1_581)">
            <path fill-rule="evenodd" clip-rule="evenodd" d="M126.092 25.9242H123.835V0.0757862H126.092V25.9242ZM179.734 0.0757862V21.7426L159.571 0.0757862V0H157.239V25.9242H159.571V4.02889L179.734 25.9242V25.8473V25.9242H182.066V0.0757862H179.734ZM152.123 0.0757862V0.151572L128.198 25.8473H131.658L152.123 3.26881V18.2442H142.042V20.6014H152.123V25.8473H154.378V0.0757862H152.123Z" fill="black"/>
            <path fill-rule="evenodd" clip-rule="evenodd" d="M114.206 14.1384H114.356C118.118 14.1384 121.201 10.7181 121.201 6.91764C121.201 3.2688 118.342 0.227357 114.805 0.0757862V0H114.43H95.9239V25.9242H98.2565V2.35715H114.656C115.763 2.50307 116.779 3.04688 117.513 3.88664C118.247 4.7264 118.649 5.80446 118.644 6.91876C118.644 9.35169 116.763 11.7077 114.28 11.8604H111.121V14.4449H111.195L117.891 25.8484H121.579L114.206 14.1384ZM81.0271 0L68.464 0.0757862V25.9231H87.3467C90.9572 25.6946 93.7411 22.6531 93.7411 19.0032C93.7411 16.4956 92.462 14.3669 90.5059 13.1499C92.4608 11.9351 93.7411 9.42636 93.7411 6.91764C93.7411 3.2688 90.9572 0.303142 87.4215 0.0757862V0H81.0271ZM81.0271 23.5659H70.7954V2.35715H87.2707C88.3779 2.5031 89.3938 3.04694 90.1278 3.88673C90.8618 4.72652 91.2635 5.80456 91.2577 6.91876C91.2577 9.42748 89.2268 11.7835 86.7434 11.8604V14.4427C89.2257 14.4427 91.2577 16.4956 91.2577 19.0032C91.2577 21.3603 89.4524 23.2605 87.1959 23.5659H81.0271Z" fill="black"/>
            <path fill-rule="evenodd" clip-rule="evenodd" d="M0 0V25.8472H2.33255L22.796 3.87731V18.2442H12.8648V20.6013H22.796V25.8472H25.0537V0H0ZM2.33255 22.3499V13.5321H10.6082L2.33255 22.3499ZM2.33255 11.175V2.35603H21.1404L12.8648 11.175H2.33255Z" fill="#00ACEC"/>
            <path fill-rule="evenodd" clip-rule="evenodd" d="M196.21 0C189.139 0 183.345 5.77752 183.345 12.9247C183.345 20.0686 189.139 25.9242 196.21 25.9242C203.281 25.9242 209 20.0686 209 12.9247C209 5.77752 203.281 0 196.21 0ZM196.21 23.1859C190.642 23.1859 186.204 18.6254 186.204 13.0763C186.204 7.45037 190.642 2.96566 196.21 2.96566C201.702 2.96566 206.216 7.45037 206.216 13.0763C206.216 18.6254 201.702 23.1859 196.21 23.1859Z" fill="black"/>
            <path fill-rule="evenodd" clip-rule="evenodd" d="M58.758 2.50868V0.151531H33.5546V25.9241H35.8123V14.0626H50.66L39.7234 25.8472H43.1842L63.5728 3.26877V18.2442H53.5667V20.6013H63.5728L63.7225 25.9999H66.0551L65.9054 0.0757446H63.5728V0.151531L52.8473 11.7066H35.8123V2.50868H58.758Z" fill="black"/>
        </g>
        <defs>
            <clipPath id="clip0_1_581">
                <rect width="209" height="26" fill="white"/>
            </clipPath>
        </defs>
    </symbol>

    <symbol width="24" height="24" viewBox="0 0 24 24" id="facebook-icon">
        <g clip-path="url(#clip0_1_465)">
            <path d="M15.402 21V14.034H17.735L18.084 11.326H15.402V9.598C15.402 8.814 15.62 8.279 16.744 8.279H18.178V5.857C17.4838 5.78334 16.7861 5.74762 16.088 5.75C14.021 5.75 12.606 7.012 12.606 9.33V11.326H10.268V14.034H12.606V21H4C3.73478 21 3.48043 20.8946 3.29289 20.7071C3.10536 20.5196 3 20.2652 3 20V4C3 3.73478 3.10536 3.48043 3.29289 3.29289C3.48043 3.10536 3.73478 3 4 3H20C20.2652 3 20.5196 3.10536 20.7071 3.29289C20.8946 3.48043 21 3.73478 21 4V20C21 20.2652 20.8946 20.5196 20.7071 20.7071C20.5196 20.8946 20.2652 21 20 21H15.402Z" fill="white"/>
        </g>
        <defs>
            <clipPath id="clip0_1_465">
                <rect width="24" height="24" fill="white"/>
            </clipPath>
        </defs>
    </symbol>

    <symbol width="24" height="24" viewBox="0 0 24 24" id="twitter-icon">
        <g clip-path="url(#clip0_1_466)">
            <path d="M22.162 5.65599C21.3986 5.99368 20.589 6.21546 19.76 6.31399C20.6337 5.79142 21.2877 4.969 21.6 3.99999C20.78 4.48799 19.881 4.82999 18.944 5.01499C18.3146 4.34157 17.4804 3.89495 16.5709 3.74457C15.6615 3.59419 14.7279 3.74848 13.9153 4.18344C13.1026 4.6184 12.4564 5.30967 12.0771 6.14978C11.6978 6.98989 11.6067 7.93177 11.818 8.82899C10.1551 8.74564 8.52832 8.31351 7.04328 7.56065C5.55823 6.80779 4.24812 5.75104 3.19799 4.45899C2.82628 5.09744 2.63095 5.82321 2.63199 6.56199C2.63199 8.01199 3.36999 9.29299 4.49199 10.043C3.828 10.0221 3.17862 9.84277 2.59799 9.51999V9.57199C2.59819 10.5377 2.93236 11.4736 3.54384 12.221C4.15532 12.9685 5.00647 13.4815 5.95299 13.673C5.33661 13.84 4.6903 13.8646 4.06299 13.745C4.32986 14.5762 4.85 15.3032 5.55058 15.8241C6.25117 16.345 7.09712 16.6338 7.96999 16.65C7.10247 17.3313 6.10917 17.835 5.04687 18.1322C3.98458 18.4293 2.87412 18.5142 1.77899 18.382C3.69069 19.6114 5.91609 20.2641 8.18899 20.262C15.882 20.262 20.089 13.889 20.089 8.36199C20.089 8.18199 20.084 7.99999 20.076 7.82199C20.8949 7.23016 21.6016 6.49701 22.163 5.65699L22.162 5.65599Z" fill="white"/>
        </g>
        <defs>
            <clipPath id="clip0_1_466">
                <rect width="24" height="24" fill="white"/>
            </clipPath>
        </defs>
    </symbol>

    <symbol width="24" height="24" viewBox="0 0 24 24" id="instagram-icon">
        <g clip-path="url(#clip0_1_469)">
            <path d="M12 2C14.717 2 15.056 2.01 16.122 2.06C17.187 2.11 17.912 2.277 18.55 2.525C19.21 2.779 19.766 3.123 20.322 3.678C20.8305 4.1779 21.224 4.78259 21.475 5.45C21.722 6.087 21.89 6.813 21.94 7.878C21.987 8.944 22 9.283 22 12C22 14.717 21.99 15.056 21.94 16.122C21.89 17.187 21.722 17.912 21.475 18.55C21.2247 19.2178 20.8311 19.8226 20.322 20.322C19.822 20.8303 19.2173 21.2238 18.55 21.475C17.913 21.722 17.187 21.89 16.122 21.94C15.056 21.987 14.717 22 12 22C9.283 22 8.944 21.99 7.878 21.94C6.813 21.89 6.088 21.722 5.45 21.475C4.78233 21.2245 4.17753 20.8309 3.678 20.322C3.16941 19.8222 2.77593 19.2175 2.525 18.55C2.277 17.913 2.11 17.187 2.06 16.122C2.013 15.056 2 14.717 2 12C2 9.283 2.01 8.944 2.06 7.878C2.11 6.812 2.277 6.088 2.525 5.45C2.77524 4.78218 3.1688 4.17732 3.678 3.678C4.17767 3.16923 4.78243 2.77573 5.45 2.525C6.088 2.277 6.812 2.11 7.878 2.06C8.944 2.013 9.283 2 12 2ZM12 7C10.6739 7 9.40215 7.52678 8.46447 8.46447C7.52678 9.40215 7 10.6739 7 12C7 13.3261 7.52678 14.5979 8.46447 15.5355C9.40215 16.4732 10.6739 17 12 17C13.3261 17 14.5979 16.4732 15.5355 15.5355C16.4732 14.5979 17 13.3261 17 12C17 10.6739 16.4732 9.40215 15.5355 8.46447C14.5979 7.52678 13.3261 7 12 7ZM18.5 6.75C18.5 6.41848 18.3683 6.10054 18.1339 5.86612C17.8995 5.6317 17.5815 5.5 17.25 5.5C16.9185 5.5 16.6005 5.6317 16.3661 5.86612C16.1317 6.10054 16 6.41848 16 6.75C16 7.08152 16.1317 7.39946 16.3661 7.63388C16.6005 7.8683 16.9185 8 17.25 8C17.5815 8 17.8995 7.8683 18.1339 7.63388C18.3683 7.39946 18.5 7.08152 18.5 6.75ZM12 9C12.7956 9 13.5587 9.31607 14.1213 9.87868C14.6839 10.4413 15 11.2044 15 12C15 12.7956 14.6839 13.5587 14.1213 14.1213C13.5587 14.6839 12.7956 15 12 15C11.2044 15 10.4413 14.6839 9.87868 14.1213C9.31607 13.5587 9 12.7956 9 12C9 11.2044 9.31607 10.4413 9.87868 9.87868C10.4413 9.31607 11.2044 9 12 9Z" fill="white"/>
        </g>
        <defs>
            <clipPath id="clip0_1_469">
                <rect width="24" height="24" fill="white"/>
            </clipPath>
        </defs>
    </symbol>

    <symbol width="24" height="24" viewBox="0 0 24 24" id="youtube-icon">
        <g clip-path="url(#clip0_1_472)">
            <path d="M21.543 6.498C22 8.28 22 12 22 12C22 12 22 15.72 21.543 17.502C21.289 18.487 20.546 19.262 19.605 19.524C17.896 20 12 20 12 20C12 20 6.107 20 4.395 19.524C3.45 19.258 2.708 18.484 2.457 17.502C2 15.72 2 12 2 12C2 12 2 8.28 2.457 6.498C2.711 5.513 3.454 4.738 4.395 4.476C6.107 4 12 4 12 4C12 4 17.896 4 19.605 4.476C20.55 4.742 21.292 5.516 21.543 6.498ZM10 15.5L16 12L10 8.5V15.5Z" fill="white"/>
        </g>
        <defs>
            <clipPath id="clip0_1_472">
                <rect width="24" height="24" fill="white"/>
            </clipPath>
        </defs>
    </symbol>

    <symbol width="22" height="18" viewBox="0 0 22 18" id="burger-icon">
        <path fill-rule="evenodd" clip-rule="evenodd" d="M0.6875 16.5625C0.6875 16.3139 0.786272 16.0754 0.962088 15.8996C1.1379 15.7238 1.37636 15.625 1.625 15.625H20.375C20.6236 15.625 20.8621 15.7238 21.0379 15.8996C21.2137 16.0754 21.3125 16.3139 21.3125 16.5625C21.3125 16.8111 21.2137 17.0496 21.0379 17.2254C20.8621 17.4012 20.6236 17.5 20.375 17.5H1.625C1.37636 17.5 1.1379 17.4012 0.962088 17.2254C0.786272 17.0496 0.6875 16.8111 0.6875 16.5625ZM0.6875 9.0625C0.6875 8.81386 0.786272 8.5754 0.962088 8.39959C1.1379 8.22377 1.37636 8.125 1.625 8.125H20.375C20.6236 8.125 20.8621 8.22377 21.0379 8.39959C21.2137 8.5754 21.3125 8.81386 21.3125 9.0625C21.3125 9.31114 21.2137 9.5496 21.0379 9.72541C20.8621 9.90123 20.6236 10 20.375 10H1.625C1.37636 10 1.1379 9.90123 0.962088 9.72541C0.786272 9.5496 0.6875 9.31114 0.6875 9.0625ZM0.6875 1.5625C0.6875 1.31386 0.786272 1.0754 0.962088 0.899588C1.1379 0.723772 1.37636 0.625 1.625 0.625H20.375C20.6236 0.625 20.8621 0.723772 21.0379 0.899588C21.2137 1.0754 21.3125 1.31386 21.3125 1.5625C21.3125 1.81114 21.2137 2.0496 21.0379 2.22541C20.8621 2.40123 20.6236 2.5 20.375 2.5H1.625C1.37636 2.5 1.1379 2.40123 0.962088 2.22541C0.786272 2.0496 0.6875 1.81114 0.6875 1.5625Z" fill="#4C5866"/>
    </symbol>


    <symbol width="18" height="18" viewBox="0 0 18 18" id="cross-icon">
        <path fill-rule="evenodd" clip-rule="evenodd" d="M0.750001 0.749999C0.948913 0.551087 1.2187 0.43934 1.5 0.43934C1.7813 0.43934 2.05109 0.551087 2.25 0.749999L17.25 15.75C17.4489 15.9489 17.5606 16.2187 17.5606 16.5C17.5606 16.7813 17.4489 17.0511 17.25 17.25C17.0511 17.4489 16.7813 17.5606 16.5 17.5606C16.2187 17.5606 15.9489 17.4489 15.75 17.25L0.750001 2.25C0.551089 2.05109 0.439341 1.7813 0.439341 1.5C0.439341 1.21869 0.551089 0.948911 0.750001 0.749999Z" fill="#4C5866"/>
        <path fill-rule="evenodd" clip-rule="evenodd" d="M17.25 0.750001C17.4489 0.948913 17.5607 1.2187 17.5607 1.5C17.5607 1.7813 17.4489 2.05109 17.25 2.25L2.25001 17.25C2.0511 17.4489 1.78132 17.5606 1.50001 17.5606C1.21871 17.5606 0.948929 17.4489 0.750017 17.25C0.551105 17.0511 0.439356 16.7813 0.439356 16.5C0.439356 16.2187 0.551105 15.9489 0.750016 15.75L15.75 0.750001C15.9489 0.551089 16.2187 0.439341 16.5 0.439341C16.7813 0.439341 17.0511 0.551089 17.25 0.750001Z" fill="#4C5866"/>
    </symbol>

    <symbol width="21" height="15" viewBox="0 0 21 15" id="arrow-icon">
        <path d="M20.7071 8.20711C21.0976 7.81658 21.0976 7.18342 20.7071 6.79289L14.3431 0.428932C13.9526 0.0384078 13.3195 0.0384078 12.9289 0.428932C12.5384 0.819457 12.5384 1.45262 12.9289 1.84315L18.5858 7.5L12.9289 13.1569C12.5384 13.5474 12.5384 14.1805 12.9289 14.5711C13.3195 14.9616 13.9526 14.9616 14.3431 14.5711L20.7071 8.20711ZM0 8.5H20V6.5H0V8.5Z"/>
    </symbol>

</svg>